<svg width="100" height="90" viewBox="0 0 100 90" fill="none" xmlns="http://www.w3.org/2000/svg">
<g opacity="0.5">
<path opacity="0.5" d="M49.5243 86.8089C73.496 86.8089 92.9288 67.3761 92.9288 43.4045C92.9288 19.4328 73.496 0 49.5243 0C25.5527 0 6.11987 19.4328 6.11987 43.4045C6.11987 67.3761 25.5527 86.8089 49.5243 86.8089Z" fill="url(#paint0_linear_21:22)"/>
</g>
<path d="M49.6068 85.6104C73.0716 85.6104 92.0937 66.5883 92.0937 43.1235C92.0937 19.6587 73.0716 0.636688 49.6068 0.636688C26.1419 0.636688 7.11987 19.6587 7.11987 43.1235C7.11987 66.5883 26.1419 85.6104 49.6068 85.6104Z" fill="#F5F5F5"/>
<path d="M49.6442 85.7828C57.9467 85.7964 66.0695 83.3658 73 78.794C71.4307 70.2359 65.4756 69.7452 65.4756 69.7452H32.6254C32.6254 69.7452 27.0074 70.2059 25.2471 78.0786C32.389 83.1039 40.9115 85.7951 49.6442 85.7828V85.7828Z" fill="#598176"/>
<path d="M49.1986 62.7377C60.5256 62.7377 69.7079 53.5554 69.7079 42.2284C69.7079 30.9014 60.5256 21.719 49.1986 21.719C37.8716 21.719 28.6892 30.9014 28.6892 42.2284C28.6892 53.5554 37.8716 62.7377 49.1986 62.7377Z" fill="#72351C"/>
<path opacity="0.1" d="M42.5767 59.3108H55.719V69.8239C55.7205 70.6876 55.5516 71.543 55.2222 72.3413C54.8927 73.1396 54.409 73.8652 53.7989 74.4764C53.1887 75.0876 52.464 75.5725 51.6663 75.9033C50.8685 76.2341 50.0133 76.4044 49.1497 76.4044V76.4044C47.4074 76.4044 45.7365 75.7123 44.5045 74.4803C43.2725 73.2484 42.5804 71.5774 42.5804 69.8352V59.3108H42.5767Z" fill="black"/>
<path d="M43.8202 58.8239H54.4531C54.7859 58.8239 55.105 58.9561 55.3403 59.1914C55.5756 59.4267 55.7078 59.7458 55.7078 60.0786V69.337C55.7078 71.0793 55.0157 72.7502 53.7837 73.9822C52.5517 75.2142 50.8808 75.9063 49.1385 75.9063C47.3962 75.9063 45.7253 75.2142 44.4933 73.9822C43.2613 72.7502 42.5692 71.0793 42.5692 69.337V60.0786C42.5692 59.7458 42.7014 59.4267 42.9367 59.1914C43.172 58.9561 43.4911 58.8239 43.8239 58.8239H43.8202Z" fill="#FDA57D"/>
<path opacity="0.1" d="M42.5918 64.2733C46.8273 65.8563 51.4897 65.8696 55.7342 64.3107V62.6965H42.5918V64.2733Z" fill="black"/>
<path d="M49.1985 65.1535C59.6009 65.1535 68.0337 56.7207 68.0337 46.3183C68.0337 35.9159 59.6009 27.4831 49.1985 27.4831C38.7961 27.4831 30.3633 35.9159 30.3633 46.3183C30.3633 56.7207 38.7961 65.1535 49.1985 65.1535Z" fill="#FDA57D"/>
<path opacity="0.1" d="M35.7828 29.1873C35.7828 29.1873 43.7191 45.2921 66.1199 35.9288L60.9064 27.7528L51.6667 24.4345L35.7828 29.1873Z" fill="black"/>
<path d="M35.7828 28.9513C35.7828 28.9513 43.7191 45.0561 66.1199 35.6928L60.9064 27.5168L51.6667 24.1985L35.7828 28.9513Z" fill="#72351C"/>
<path d="M35.7115 27.8614C36.2466 26.2048 37.1714 24.7008 38.4082 23.4756C42.1123 19.8127 48.1872 19.0412 51.3033 14.8614C51.4726 15.1572 51.578 15.4852 51.6127 15.8243C51.6474 16.1634 51.6106 16.5059 51.5048 16.8299C51.3989 17.1539 51.2263 17.4521 50.998 17.7052C50.7698 17.9584 50.491 18.1608 50.1797 18.2996C53.1759 18.2809 56.6254 18.0187 58.3108 15.5618C58.7279 16.5327 58.861 17.602 58.6946 18.6455C58.5282 19.689 58.0691 20.6639 57.3707 21.4569C60.0149 21.5767 62.8389 23.3708 63.0112 26.0149C63.1235 27.7752 62.0224 29.4419 60.5729 30.4531C59.1235 31.4644 57.3782 31.9176 55.6553 32.2921C50.6291 33.4157 32.4306 38.0636 35.7115 27.8614Z" fill="#72351C"/>
<path d="M68.0337 46.4831H67.5356L57.8202 55.1385C48.457 50.7565 41.5881 55.1385 41.5881 55.1385L31.4008 46.8464L30.3746 46.9737C30.5135 51.9174 32.5913 56.608 36.1591 60.0328C39.727 63.4575 44.4988 65.3416 49.4439 65.2782C54.3891 65.2147 59.111 63.2089 62.5898 59.6937C66.0687 56.1785 68.0254 51.4361 68.0375 46.4906L68.0337 46.4831ZM49.1723 58.4493C45.5094 58.4493 42.5394 57.7003 42.5394 56.7902C42.5394 55.8801 45.5094 55.131 49.1723 55.131C52.8352 55.131 55.8053 55.8801 55.8053 56.7902C55.8053 57.7003 52.8352 58.4493 49.1686 58.4493H49.1723Z" fill="#72351C"/>
<path d="M30.3558 49.5841C31.3239 49.5841 32.1086 48.1135 32.1086 46.2995C32.1086 44.4854 31.3239 43.0149 30.3558 43.0149C29.3878 43.0149 28.603 44.4854 28.603 46.2995C28.603 48.1135 29.3878 49.5841 30.3558 49.5841Z" fill="#FDA57D"/>
<path d="M68.0299 49.5841C68.998 49.5841 69.7827 48.1135 69.7827 46.2995C69.7827 44.4854 68.998 43.0149 68.0299 43.0149C67.0619 43.0149 66.2771 44.4854 66.2771 46.2995C66.2771 48.1135 67.0619 49.5841 68.0299 49.5841Z" fill="#FDA57D"/>
<defs>
<linearGradient id="paint0_linear_21:22" x1="57406.8" y1="20119.7" x2="57406.8" y2="0" gradientUnits="userSpaceOnUse">
<stop stop-color="#808080" stop-opacity="0.25"/>
<stop offset="0.54" stop-color="#808080" stop-opacity="0.12"/>
<stop offset="1" stop-color="#808080" stop-opacity="0.1"/>
</linearGradient>
</defs>
</svg>
